<svg xmlns="http://www.w3.org/2000/svg" viewBox="0 0 304.36 304.41"><g id="Слой_2" data-name="Слой 2"><g id="Слой_1-2" data-name="Слой 1" fill="#be8d6d"><path d="M146.9 0c18.35.09 35.1 2.15 51.44 7.1a140.61 140.61 0 0147.9 25.27c18.85 15.19 33.93 33.42 44.31 55.39A141.09 141.09 0 01303 130.61c3 23.47 1.29 46.57-5.89 69.17a144.63 144.63 0 01-34.37 57.06c-16 16.6-34.49 29.49-56.07 37.81a147.15 147.15 0 01-34.78 8.58 156.09 156.09 0 01-28.83.88q-62.49-3.93-104.36-50.49a146.53 146.53 0 01-38.24-89.1 163.8 163.8 0 01.6-31 148.26 148.26 0 0116.39-52.75c14.47-27.31 35.13-48.59 62.23-63.51a138.69 138.69 0 0147.87-15.94A124.77 124.77 0 01146.9 0zm150 152.22C298.11 72.33 230 7.3 153.09 7.12 74.59 6.94 7.37 70.13 7.33 151.87 7.3 233.08 72.82 295.78 151 297c77.47 1.17 147.09-64.83 145.92-144.76z"/><path d="M158.26 157.34v70.73h-29.59v-70.62h-13.88v-25.28h13.8v-1.35c.07-5.55 0-11.11.27-16.65.26-6.07 1.64-11.87 5.14-17a23.56 23.56 0 0119.25-10.73c8.62-.34 17.26-.17 25.89-.22.27 0 .54 0 .9.06v24.27h-13.36c-.84 0-1.68 0-2.51.06-3.78.31-5.7 2-5.87 5.8-.2 4.42-.11 8.86-.15 13.29v2.28h22.6c-.88 8.52-1.74 16.88-2.61 25.33z"/></g></g></svg>