<svg xmlns="http://www.w3.org/2000/svg" viewBox="0 0 304.57 304.4"><g id="Слой_2" data-name="Слой 2"><g id="Слой_1-2" data-name="Слой 1" fill="#be8d6d"><path d="M0 152.33C-.21 95.62 31.17 45.25 76.6 18.69a137 137 0 0145.73-16.81A141.15 141.15 0 01155.88.36c5.13.33 10.28.66 15.38 1.29a157.19 157.19 0 0139.28 9.86c20.54 8.2 38 20.82 53.09 36.87a148.08 148.08 0 0132.64 53.08 145.25 145.25 0 016.91 29.16 164.85 164.85 0 011.13 30.61c-1.56 27.33-9.3 52.69-24.91 75.31-19.52 28.28-45.25 48.71-77.87 60.06a143.54 143.54 0 01-42.39 7.68 158.22 158.22 0 01-56.52-7.86 145.28 145.28 0 01-56.56-35.21C30 245.29 17.45 227 9.5 205.72A141.84 141.84 0 011 168.24c-.49-5.24-.68-10.6-1-15.91zM152.53 296.9a157.51 157.51 0 0021.16-1.48 135.8 135.8 0 0044.51-14.12c17.05-8.89 31.57-20.92 44.17-35.37 21-24.1 32.63-52.06 34.52-84a156.56 156.56 0 00-1.83-34.25 140.44 140.44 0 00-8.81-31.29c-8.33-20.13-21-37.13-37.14-51.68Q209.56 9 156.31 7.37a142.11 142.11 0 00-33.43 2.88 139.48 139.48 0 00-54 23.66C32.6 60.3 12.18 95.85 8 140.57a136.26 136.26 0 002.77 41.94c7.24 33.19 24 60.66 50.33 82.05 26.58 21.57 57.23 32.11 91.43 32.34z"/><path d="M154.59 229.83c-10.51 0-21 .06-31.53 0-11-.08-20.87-3.27-29.07-10.8a38.13 38.13 0 01-12.55-25c-.74-7.57-.62-15.23-.7-22.86-.09-9.19 0-18.38 0-27.57 0-7.07-.17-14.15.14-21.22.66-14.72 7-26.35 19.72-34.1a38.39 38.39 0 0120.09-5.56c22.26-.12 44.52-.19 66.78 0a39.77 39.77 0 0129.25 12.26 38.13 38.13 0 0111 23.88c.61 7.15.52 14.37.54 21.56q.08 23.79-.07 47.59c-.05 10.31-3 19.68-9.72 27.64-6.45 7.6-14.78 11.89-24.53 13.56-5.87 1-11.79.65-17.7.7h-21.7zm0-13.6v.09c8.55 0 17.11.06 25.66 0a83.13 83.13 0 0011.82-.59c14.2-2.17 22.28-13.42 22.54-26.29.27-13.46.28-26.94.25-40.4 0-9.55-.09-19.11-.51-28.64a24.42 24.42 0 00-6.15-14.78c-5.64-6.67-13.1-9.46-21.62-9.5q-26.74-.15-53.48 0a147.76 147.76 0 00-15.9.53c-11.2 1.21-19.7 9.35-22 20.4-1 4.61-.87 9.29-.91 14-.07 8.74 0 17.49 0 26.24 0 9.67-.07 19.35 0 29a40.29 40.29 0 001 8.77c3.12 13.24 13.29 20.78 25.64 21.13 11.21.3 22.45.04 33.68.04z"/><path d="M192.39 156.12a37.93 37.93 0 11-37.54-38.23c20.77.04 37.57 17.11 37.54 38.23zm-13.46-.2a24.46 24.46 0 10-24.47 24.31 24.63 24.63 0 0024.47-24.31zM202.46 117a8.54 8.54 0 01-17.08.12 8.27 8.27 0 018.46-8.6 8.4 8.4 0 018.62 8.48z"/></g></g></svg>