<svg xmlns="http://www.w3.org/2000/svg" viewBox="0 0 176.9 177.01"><g id="Слой_2" data-name="Слой 2"><path d="M80.4 88.46c-2-2-4-4-5.93-6Q45.94 53.9 17.4 25.37L2.54 10.56a7.26 7.26 0 01-2.54-5A5.45 5.45 0 013.37.49a5.23 5.23 0 015.89 1Q17 9.09 24.69 16.75q19.82 19.79 39.59 39.61l22.3 22.3c.67.68 1.38 1.31 2.1 2a3.89 3.89 0 00.43-.33q23.67-23.88 47.35-47.78 14.86-15 29.78-29.92c1.69-1.7 3.6-2.78 6.09-2.39a4.84 4.84 0 014.2 3.45 5.21 5.21 0 01-1.11 5.67q-14.6 14.64-29.18 29.3-15.18 15.26-30.38 30.5c-6.09 6.12-12.12 12.29-18.18 18.45-.27.28-.52.59-.84 1 .31.35.58.68.88 1 4.93 5 9.85 10 14.82 15q29.61 29.66 59.26 59.29c1 1 2.08 2 3.09 3a6.12 6.12 0 011.79 5.92 5.42 5.42 0 01-9.08 2.66q-18.47-18.27-36.83-36.6-17.22-17.13-34.42-34.27c-2.54-2.53-4.93-5.21-7.51-7.94-.2.19-.62.53-1 .91-8.84 8.68-17.78 17.35-26.59 26.12q-23.85 23.73-47.59 47.55c-1.19 1.19-2.32 2.43-3.49 3.63a6.13 6.13 0 01-4.94 2 5 5 0 01-4.79-3.38 5.39 5.39 0 011.24-6.06Q27 142.1 52.34 116.68q13.2-13.25 26.44-26.47c.56-.56 1.08-1.16 1.62-1.75z" id="Слой_1-2" data-name="Слой 1"/></g></svg>