<svg xmlns="http://www.w3.org/2000/svg" viewBox="0 0 297.87 297.98"><g id="Слой_2" data-name="Слой 2"><g id="Слой_1-2" data-name="Слой 1" fill="#fff"><path d="M149.05 0A149 149 0 110 148.17 148.73 148.73 0 01149.05 0zm-.17 288.65A139.37 139.37 0 00288.5 149.77c.35-77.18-61.5-140.2-139.11-140.3-78-.1-140.16 62-139.94 140.22.21 77.44 62.55 138.8 139.43 138.96z"/><path d="M149 156c-2.92 2.81-5.78 5.48-8.55 8.24q-27 26.89-53.87 53.81c-1 1-1.88 2-2.83 2.94a5.37 5.37 0 01-3.57 1.74 4.43 4.43 0 01-4.5-2.53 4.58 4.58 0 01.92-5.3q7.44-7.56 14.92-15.09 24.45-24.48 48.91-48.93c.6-.59 1.16-1.21 1.81-1.9-.56-.61-1.08-1.2-1.63-1.76q-31.86-31.9-63.73-63.78a4.86 4.86 0 01-1.49-4.88 4.55 4.55 0 016.61-2.8 8.88 8.88 0 012.15 1.67Q116.06 109.18 148 141c.31.31.63.6 1.05 1 2-1.89 4-3.72 5.89-5.63q27.8-27.75 55.56-55.52c1.5-1.49 3-3 4.57-4.42a4.63 4.63 0 016.38.14 4.5 4.5 0 01.12 6.37Q210.63 94 199.67 105q-21.45 21.54-42.95 43c-.83.83-.79 1.32 0 2.13q29.69 29.65 59.32 59.37c1.75 1.75 3.46 3.56 5.17 5.35a4.65 4.65 0 01.19 6.66 4.87 4.87 0 01-6.76-.16q-29.24-29.27-58.56-58.44c-2.27-2.31-4.63-4.52-7.08-6.91z"/></g></g></svg>