<svg xmlns="http://www.w3.org/2000/svg" viewBox="0 0 830.95 823.95"><g id="Слой_2" data-name="Слой 2"><path d="M829.19 348a382.81 382.81 0 00-6-43 370.75 370.75 0 00-14.31-52.6 335.64 335.64 0 00-28.58-60.69 312.87 312.87 0 00-24.78-35 345.35 345.35 0 00-28.81-31.56 368.07 368.07 0 00-60.63-47A405.76 405.76 0 00627.39 57a484.47 484.47 0 00-48.47-20.51c-9.59-3.46-17.86-6.1-24.17-8a591.32 591.32 0 00-88-19.82c-31.73-4.61-60.26-6-82-7.11-4.93-.25-18.27-.88-35.69-1.24-21.4-.48-39.86-.32-54.32-.03H0V27h29.79a95.8 95.8 0 0111.2.65c6.47.82 15.78 2.07 26.3 7.08a72 72 0 0121.28 15.51 73 73 0 0114.82 24.13c4 10.08 5 18.5 6.08 26.78a150.5 150.5 0 011.16 19.78c-.16 17.66-.16 564.67 0 582.34a150.3 150.3 0 01-1.16 19.73c-1 8.29-2.07 16.7-6.08 26.79A73 73 0 0188.57 774a71.6 71.6 0 01-21.28 15.48c-10.52 5-19.83 6.27-26.3 7.08a96.18 96.18 0 01-11.2.66H0v26.74h575.06l99.68-193.3h-22.49c-4.56 6.3-11 14.76-19.2 24.31a366.09 366.09 0 01-66.59 60.69c-17.83 12.46-54.37 37.53-103.48 49-21.22 5-47.63 8.06-51.24 8.48-17.5 2-32.18 2.81-43.36 3.4a878.44 878.44 0 01-40.22 1.2s-43.13 0-50-.52c-10.58-.79-15.86-1.18-22.46-3.58a52.84 52.84 0 01-18.1-11.07 52.06 52.06 0 01-9.67-12.57c-5.78-10.05-7.27-19.3-8.49-27.33a106.85 106.85 0 01-1.21-14.36V96.82a86.43 86.43 0 013.9-28.14c1.63-5.2 3.4-10.7 7.59-16.94 2.77-4.13 11.28-15.6 26.28-20.57 4.05-1.36 8.3-1.83 16.79-2.77a205.8 205.8 0 0122-1.38c10.31-.06 20.61.06 30.92 0q26.4.72 54.44 2.65 14.08 1 27.73 2.26a372.22 372.22 0 0159.09 12.22 341.39 341.39 0 0136.79 13.06A317 317 0 01534 72c6.64 3.62 15.5 8.77 25.53 15.61a298.52 298.52 0 0170 66.36c5.12 6.77 12 16.38 19.46 28.38a386.54 386.54 0 0129.61 58.9 399 399 0 0113.69 40.08 441.78 441.78 0 0114.43 69.95c1.78 14.47 2.73 28.14 3.1 40.86.33 6.55.49 13.48.39 20.76q-.12 8.93-.67 17.11a541.82 541.82 0 01-9.29 72.1 306.69 306.69 0 01-8.79 34.14c-3.5 10.8-7.09 19.72-10 26.29h112.42c2.74-6.23 5.9-12.88 8.56-19.67q4.62-11.77 8.33-22.86c2.74-8.38 5.38-17.32 7.83-26.79 2.94-11.35 5.26-22.18 7.11-32.39a378.69 378.69 0 004.49-39c.51-8.11.74-15.88.75-23.29l-.4-22.91q-.69-13.81-1.36-27.63z" fill="#000100" id="Слой_1-2" data-name="Слой 1"/></g></svg>