<svg xmlns="http://www.w3.org/2000/svg" viewBox="0 0 1719.35 141.98"><g id="Слой_2" data-name="Слой 2"><g id="Слой_1-2" data-name="Слой 1"><path d="M77 129.06L76 128a45.33 45.33 0 01-4.15 1.87c-6.39 2.49-11.57 2.78-20.28 3.2-8.27.4-14.49.67-17.79.81h-15.1V13.81a11.94 11.94 0 012.5-8.32 10.84 10.84 0 012.87-2.42v-.95H0v1a12 12 0 012.73 2.66 12.76 12.76 0 012.41 8v113.8a12.76 12.76 0 01-2.41 8A12 12 0 010 138.25v1h72.13zM184.49 128a46.1 46.1 0 01-4.75 2.12c-5.27 2-9.63 2.46-18.12 3-6 .39-11.46.65-16.28.82h-15.07V60.17h18.37c3.19 0 6.39.32 9.56.6a21.31 21.31 0 018.11 2.06 14.54 14.54 0 011.55.94h.6l3.91-8.41h-42.1V7.54h27.41c4.37 0 8.12.22 11.1.46a19.43 19.43 0 017.8 1.8 16.24 16.24 0 013.36 2.25h.87L185 3.27V2.12h-73.41V3.2a11.93 11.93 0 012.73 2.62 12.71 12.71 0 012.41 8v113.81a12.71 12.71 0 01-2.41 8 11.93 11.93 0 01-2.73 2.62v1h69.16l4.94-10.35zm1085.28 0a45.13 45.13 0 01-4.75 2.12c-5.27 2-9.63 2.46-18.12 3-6 .39-11.45.65-16.28.82h-15.07V60.17h18.37c3.19 0 6.39.32 9.56.6a21.31 21.31 0 018.11 2.06 13.61 13.61 0 011.55.94h.6l3.91-8.41h-42.1V7.54h27.41c4.37 0 8.12.22 11.1.46s5.29.54 7.8 1.8a16.24 16.24 0 013.36 2.25h.87l4.21-8.78V2.12h-73.43V3.2a11.93 11.93 0 012.73 2.62 12.73 12.73 0 012.41 8v113.81a12.71 12.71 0 01-2.41 8 11.72 11.72 0 01-2.73 2.62v1l69.16-.05 4.94-10.35zM261.58 139.28h4.9l45.7-128.62a17.42 17.42 0 013.15-4.87A17 17 0 01318.56 3v-.9H302V3a7.27 7.27 0 012.73 2.71 7.18 7.18 0 01.92 2.8 7.4 7.4 0 01-.06 2q-7.17 20.42-14.35 40.8l-24 67.86-37.73-107.83a8.48 8.48 0 01-.21-2.58 7.35 7.35 0 011.15-3.5A6.94 6.94 0 01232.82 3v-.88h-24.34v1a14.45 14.45 0 016.06 7.11zm166.81-2.6a21.83 21.83 0 01-5.34-8.66l-49.2-125.9h-15.28V3a22.07 22.07 0 012.54 2.33 23.43 23.43 0 014.44 6.86L371 26.55l-40.14 105a16 16 0 01-2.56 3.94 15.62 15.62 0 01-3.4 2.91v.87h16.5v-.87a7.35 7.35 0 01-3.14-3.62 7.65 7.65 0 01-.43-3 8 8 0 01.42-2.13q8.38-22.09 16.75-44.2h38.24l16.56 43.76a7.43 7.43 0 01-3.07 9.31v.82h23.73v-.82a20.3 20.3 0 01-2.07-1.84zm-71.57-56.06q8.67-22.85 17.33-45.71 8.64 22.86 17.29 45.71zm442.36 58.66h4.91l45.7-128.62a17.73 17.73 0 013.14-4.87A17.32 17.32 0 01856.17 3v-.9h-16.53V3a7.27 7.27 0 012.73 2.71 7.24 7.24 0 01.86 4.75q-7.17 20.42-14.36 40.8l-24 67.86-37.75-107.78a8.14 8.14 0 01-.21-2.58 7.31 7.31 0 011.14-3.5A7.12 7.12 0 01770.42 3v-.88h-24.34v1a14.17 14.17 0 013 2.41 14.62 14.62 0 013 4.7zm166.82-2.6a21.83 21.83 0 01-5.34-8.66q-24.6-63-49.21-125.9h-15.27V3a23 23 0 012.54 2.33 23.43 23.43 0 014.44 6.86l5.43 14.36-40.14 105a16.05 16.05 0 01-6 6.85v.87H879v-.87a7.3 7.3 0 01-3.14-3.62 7.65 7.65 0 01-.43-3 8 8 0 01.42-2.13l16.75-44.2h38.24l16.56 43.76a7.62 7.62 0 01.13 5.46 7.52 7.52 0 01-3.2 3.85v.82h23.73v-.82a20.3 20.3 0 01-2.06-1.84zm-71.57-56.05q8.67-22.86 17.32-45.72l17.3 45.72zM540.25 2.12V3A10.81 10.81 0 01543 5.2a11.29 11.29 0 012.63 7.27v103.1L472.89 2.12H456V3a34.44 34.44 0 012.89 2.5 34.84 34.84 0 015.24 6.42q1.66 2.58 3.31 5.16v111.85a11.28 11.28 0 01-2.62 7.26 10.27 10.27 0 01-2.8 2.25v.84h17.44v-.88a10 10 0 01-2.82-2.2 12.26 12.26 0 01-2.58-7.27V27.36L547.64 142h4.65V12.47a12.26 12.26 0 012.58-7.27 9.53 9.53 0 012.82-2.2v-.88zm1161.65 0V3a10.67 10.67 0 012.8 2.25 11.2 11.2 0 012.62 7.27v103.1l-72.78-113.5h-16.85V3a36.11 36.11 0 012.89 2.5 35.26 35.26 0 015.24 6.42l3.31 5.16v111.85a11.25 11.25 0 01-2.63 7.26 10.25 10.25 0 01-2.79 2.25v.84h17.44v-.88a9.83 9.83 0 01-2.82-2.2 12.26 12.26 0 01-2.58-7.27V27.36L1709.3 142h4.7V12.47a12.23 12.23 0 012.57-7.27 9.68 9.68 0 012.83-2.2v-.88zM659.21 0c-39.63 0-71.75 31.78-71.75 71s32.12 71 71.75 71S731 110.2 731 71 698.83 0 659.21 0zm0 136c-31.15 0-56.4-29.16-56.4-65.13s25.25-65.12 56.4-65.12 56.4 29.16 56.4 65.12S690.36 136 659.21 136zm490.84-110.78c-20-22.81-47.87-23.12-52.12-23.1h-57.47V3a10.65 10.65 0 012.85 2.36 11.92 11.92 0 012.57 8.44v113.8a11.91 11.91 0 01-2.57 8.43 10.65 10.65 0 01-2.85 2.36v.89h57.47c4.25 0 32.11-.29 52.11-23.1 16.27-18.56 16.79-40 16.76-45.48.03-5.51-.49-26.92-16.75-45.48zM1130 122.73c-12.67 9.68-26.36 11-32.3 11.14h-29.59c-.8 0-4.22 0-6.37-2.48a9.65 9.65 0 01-1.92-4.28 13.25 13.25 0 01-.35-3.73V7.55h34.9a53.54 53.54 0 0123.63 5.2c30.56 14.86 33.66 55 33.84 58 .16 2.66 1.97 33.78-21.84 51.98zm243.85-21.07c-1.95-11.51-9.8-18.51-19.32-27-9.87-8.8-22.33-16.67-32.65-25.13a31 31 0 01-10-13.43c-.67-1.85-4.44-12.33 1.4-21.26 5.34-8.17 15.52-9.28 17.7-9.51 18.17-2 30.67 15.55 31.44 16.65h.52l6.91-11.16v-.6a13.44 13.44 0 01-2.8-.51c-3.42-1.29-4.85-2.74-8.2-4.49 0 0-1.55-.8-4.66-2C1343.7-.81 1332 .16 1332 .16c-6.17.52-14.45 1.2-22 7.31a30.68 30.68 0 00-7.34 8.62 33.49 33.49 0 00-3.66 22.3c2.52 13.85 13.67 23 24.21 31.17 9.79 7.59 20.21 14.5 29 23.25 7.58 7.51 12.89 20.7 7.69 31-4.53 9-14.94 11.35-17.46 11.93-13.5 3.08-24.56-4.85-26.47-6.22a57.14 57.14 0 01-9.44-9.08 69.59 69.59 0 01-6.48-8.84h-2.11v21.05h1.84a1.52 1.52 0 01.57-.46 2.51 2.51 0 011.72.16 59.26 59.26 0 0012.08 6 61.1 61.1 0 0022.37 3.49 47.76 47.76 0 0014.28-2.2 45.55 45.55 0 0010.63-5 35 35 0 008.6-10.25c.48-.87 5.83-10.9 3.82-22.73zm54.29-98.59v-.94h-24.05v1a11.93 11.93 0 012.73 2.62 12.78 12.78 0 012.41 8v113.84a12.78 12.78 0 01-2.41 8 11.93 11.93 0 01-2.73 2.62v1h24.05v-.94a10.71 10.71 0 01-2.87-2.43 11.93 11.93 0 01-2.5-8.32V13.82a11.93 11.93 0 012.5-8.32 10.71 10.71 0 012.87-2.43zm138.34 70.32v1.14a8.57 8.57 0 012.81 1.9c2.75 2.79 2.59 6.7 2.59 10.33v39.75c-5 3-18.94 7.5-27.52 8.52-18.27 2.18-39.37-.81-52.87-14.48-5.71-5.77-8.75-12.07-10.87-16.47a71.51 71.51 0 01-5.41-15.39 72.77 72.77 0 01-1.66-18 75 75 0 014.54-23.8 72.22 72.22 0 0111.2-19.72c3.18-4 14-16.44 32.55-20.21A54.11 54.11 0 011550.77 9a52 52 0 0122.41 16.23h.88l7.23-11.79-.42-.61a11.93 11.93 0 01-2.91-.32 11.4 11.4 0 01-3.68-1.65 59.48 59.48 0 00-9-4.81 68.63 68.63 0 00-13.71-4A92.33 92.33 0 001530.94 0a85.12 85.12 0 00-21.44 3 74.17 74.17 0 00-13.5 5.28 72.2 72.2 0 00-28.4 26.55 72.2 72.2 0 00-9.6 35.87 72.66 72.66 0 0022.25 52.05 68.77 68.77 0 0015.23 11 71.08 71.08 0 0014.08 5.53 80.88 80.88 0 0021.3 2.7 90 90 0 0011.41-.8 97.25 97.25 0 0012.7-2.59c2.65-.69 4.33-1.23 10-3.08l8.87-2.91a13.7 13.7 0 017.1.19 12.93 12.93 0 011.83.71h2.56V88.11c0-4.09-.22-8.31 2.5-11.71 1-1.23 2-1.36 2.86-1.88v-1.13z" fill="#000100" id="Levanona_Design" data-name="Levanona Design"/></g></g></svg>