<svg xmlns="http://www.w3.org/2000/svg" viewBox="0 0 235.37 333.58"><g id="Слой_2" data-name="Слой 2"><g id="Слой_1-2" data-name="Слой 1"><path d="M235.36 166.58v147.75a28.38 28.38 0 01-.71 6.64 16.29 16.29 0 01-15.86 12.4q-22.67.11-45.33.1-37.83.07-75.66.11H18.89c-5.23 0-10-1.21-13.74-5.09a16.63 16.63 0 01-5-12.17q.12-16.67.1-33.32c0-23.59-.1-47.17-.12-70.76Q.05 149.7 0 87.15a25.76 25.76 0 017.1-18.51Q36.49 37.35 65.79 6a18 18 0 0113.84-6h136.81a26.38 26.38 0 016.75.82 16.66 16.66 0 0112.1 15.7c.07 16.79-.07 33.58-.11 50.37q-.06 19.3-.09 38.61v61zm-12.24.93V17.49a5.17 5.17 0 00-4.84-5.3 22.65 22.65 0 00-2.86-.2c-15 0-30 .06-45 .06H81.96c-1.78.14-2 .38-2 2.22v1.08c0 17.38.06 34.77 0 52.16 0 7.39-3.67 12.64-10.3 15.77-2.92 1.37-6.08 1.45-9.26 1.44-14.87-.07-29.73-.07-44.6-.09-3.54 0-3.55 0-3.55 3.58v157.58q0 25.12-.05 50.24v18.71c0 3.61 1.53 5.8 4.48 6.49a11.41 11.41 0 002.62.21c6.91 0 13.83-.07 20.74-.06q39.63 0 79.25.11c12.07 0 24.14 0 36.21-.06h52.88c3.4 0 6.8 0 10.2-.07 3.14-.08 4.67-1.73 4.67-4.81v-29.62zM20.23 72.6c.44 0 .64.07.83.07h41c4 0 5.85-1.93 5.86-6V23.39c0-.46-.06-.92-.12-1.74z"/><path d="M117.35 187.56H44.07a6.06 6.06 0 01.27-12.12h144.99a11.4 11.4 0 012.61.27 5.8 5.8 0 014.41 6.29 6 6 0 01-6.09 5.59q-9.34.06-18.7 0h-50.13zm.49-38.16H44.71a6.31 6.31 0 01-6.15-6.25 6.55 6.55 0 016.34-5.95c16 .08 31.89 0 47.84 0h97.1c3.58 0 5.71 1.41 6.63 4.37a6 6 0 01-5.5 7.78c-2.15.07-4.31 0-6.47 0zm-.44 79.24H45.06c-3.47 0-5.36-1.25-6.52-4.22a6 6 0 014.68-7.84 15.34 15.34 0 011.92-.08H188.7c.64 0 1.28 0 1.91.07a6 6 0 01-.54 12.07h-55.88c-5.6.01-11.19 0-16.79 0zm-.4 27.23h71.83a15.82 15.82 0 012.39.09 6.05 6.05 0 01-.3 12 19.85 19.85 0 01-2 0H45.78a13.53 13.53 0 01-3-.24 6.29 6.29 0 01-4.62-6.69 6.55 6.55 0 016-5.24c9 .1 18.07 0 27.1 0H117z"/></g></g></svg>