<svg xmlns="http://www.w3.org/2000/svg" viewBox="0 0 304.36 304.35"><g id="Слой_2" data-name="Слой 2"><g id="Слой_1-2" data-name="Слой 1"><path d="M145.83 0c19.65.11 36.67 2.23 53.26 7.34 23.76 7.32 44.06 20.26 61.46 37.91 16.32 16.54 28.68 35.57 36.11 57.68a144.91 144.91 0 016.89 32.49c2.07 21.9.25 43.41-6.46 64.41-7.68 24-21.07 44.48-39.23 61.88-17.36 16.61-37.25 29-60.3 36.09a152.15 152.15 0 01-50.27 6.45 155.89 155.89 0 01-45.69-8.19 146.13 146.13 0 01-57.19-36.4c-14.87-15.08-26.6-32.25-34.33-52.05A145.16 145.16 0 01.77 168c-2.5-27.09.93-53.32 12.33-78.14 18.5-40.3 48.41-68.38 90.53-82.94A128.08 128.08 0 01145.83 0zm6.1 7.24C74.52 7 7.5 70.06 7.32 151.84 7.14 231.74 72 296.15 151.56 297c79.21.88 146.85-66.94 145.46-144.85.74-81.28-67.79-146.01-145.09-144.9z"/><path d="M193.84 231.42c-5.94.33-11.13-1.46-16.21-3.88-15.1-7.2-28.5-16.86-40.87-28a355.85 355.85 0 01-40.28-42.34 164.16 164.16 0 01-19-30.42 31.51 31.51 0 01-3.32-14.11c0-5.79 2.06-10.91 5-15.76 5.26-8.63 12.31-15.6 20.22-21.74 3-2.29 6.33-3.7 10.06-2.27a37.66 37.66 0 018.65 4.27 51.77 51.77 0 0119.81 27.62c1.23 4.08.45 7.53-2.49 10.45-3.2 3.18-6.4 6.4-9.85 9.29-3.69 3.1-4.2 6.87-2.89 11a49.59 49.59 0 003.51 8c5.74 11.06 13.94 20.1 23.38 28.11 5.33 4.53 11.34 8 17.37 11.46a23.36 23.36 0 006.1 2.07 5.74 5.74 0 005.46-1.43c1.63-1.53 3.13-3.19 4.69-4.8 2.7-2.78 5.45-5.51 8.09-8.35a7.87 7.87 0 015.8-2.37 20.71 20.71 0 0110.57 2.14c9.93 5 17.33 12.48 21.1 23.13a16.38 16.38 0 01-1.34 14.44c-4.75 7.84-10.55 14.73-18.65 19.41-4.69 2.66-9.6 4.49-14.91 4.08zM81.8 111.58a41 41 0 002.2 10.61A75.73 75.73 0 0092.12 138c8.37 13 18.57 24.62 29.33 35.68 7.37 7.58 15.31 14.62 23 21.92a142.41 142.41 0 0036.3 25.09 35.26 35.26 0 009.38 3.09c4.1.71 4.09.72 8.27-.59 3.82-1.21 7.54-2.59 10.68-5.21a57.66 57.66 0 0011.52-13.53 9.42 9.42 0 00.69-9.56c-4.31-9.43-11.12-16.14-21.26-19.13a4 4 0 00-4.26 1.11c-1.3 1.36-2.54 2.78-3.86 4.1-3.22 3.22-6.39 6.5-9.76 9.56a11.68 11.68 0 01-4.48 2.35 13.59 13.59 0 01-7.55-.35 58.38 58.38 0 01-22.51-12.28A172.72 172.72 0 01126 157.64a58 58 0 01-11.86-24.78c-.84-4.08-.18-7.66 3-10.62 2-1.87 3.89-3.9 5.84-5.85s3.67-3.56 5.46-5.39a6 6 0 001.37-6.94c-.49-1.22-1-2.42-1.64-3.58a51 51 0 00-16.52-18.65c-3.47-2.41-5.57-2.28-8.86.38l-.37.31a143.34 143.34 0 00-16.94 18.41 16.57 16.57 0 00-3.68 10.65z"/></g></g></svg>