<svg xmlns="http://www.w3.org/2000/svg" viewBox="0 0 281.51 281.48"><g id="Слой_2" data-name="Слой 2"><g id="Слой_1-2" data-name="Слой 1"><path d="M140.34 281.48A139.87 139.87 0 010 140.76C.1 62.06 62.61-.21 141.21 0s140.35 63.09 140.3 140.88a140.11 140.11 0 01-141.17 140.6zM9.29 140.3c.35 5.21.64 10.44 1.09 15.64a108.4 108.4 0 004.49 22.56 128.2 128.2 0 0040.18 61.18c24.12 20.58 52.29 30.92 83.82 32.42a115.1 115.1 0 0024.44-1.6 123 123 0 0034.46-11c24-11.89 42.59-29.78 56.52-52.54A121.32 121.32 0 00272 149.23a142.59 142.59 0 00-2-32.67 126.09 126.09 0 00-12.84-37.46 131.63 131.63 0 00-33.54-40.22c-23.25-19-49.83-29.11-79.94-29.55a143.46 143.46 0 00-27.27 2.28 126.45 126.45 0 00-32.32 10.27 129.18 129.18 0 00-43.29 33.8Q9.72 92.28 9.29 140.3z"/><path d="M103.46 140.84v-68.7a18.55 18.55 0 01.27-3.33A3.28 3.28 0 01108 66a16.94 16.94 0 015.11 2.2Q134.6 82.73 156 97.42q27.9 19.06 55.77 38.15c.53.36 1.08.69 1.61 1.05a4.83 4.83 0 01.07 8.23c-3.68 2.54-7.41 5-11.11 7.53l-90.56 61.82c-1.42 1-2.85 1.81-4.65 1.51a4.19 4.19 0 01-3.65-4.26c-.06-1.15 0-2.31 0-3.47v-67.14zm9.39 61.34l90.08-61.42-90.08-61.42z"/></g></g></svg>